<svg width="59" height="60" viewBox="0 0 59 60" fill="none" xmlns="http://www.w3.org/2000/svg">
<path d="M34.5747 0C28.1031 0.0204877 21.9026 2.55721 17.3264 7.05646C12.7503 11.5557 10.1703 17.6521 10.1494 24.015C10.1483 28.8316 11.6316 33.5354 14.4038 37.5066L1.7548 49.9437C0.631125 51.0487 -8.39112e-05 52.5472 3.05331e-05 54.1098C0.000144977 55.6723 0.631574 57.1708 1.75541 58.2756C2.87925 59.3804 4.40343 60.001 5.99266 60.0009C7.58189 60.0008 9.10599 59.38 10.2297 58.275L23.3867 45.336C26.8405 47.1066 30.6781 48.0308 34.5732 48.03C41.0512 48.03 47.2639 45.4999 51.8445 40.9962C56.4251 36.4925 58.9985 30.3842 58.9985 24.015C58.9985 17.6458 56.4251 11.5375 51.8445 7.03383C47.2639 2.53015 41.0512 0 34.5732 0H34.5747ZM34.5747 10.2579C37.3421 10.2579 40.0473 11.0647 42.3483 12.5764C44.6493 14.088 46.4427 16.2366 47.5018 18.7504C48.5608 21.2642 48.8379 24.0303 48.298 26.6989C47.7581 29.3675 46.4255 31.8188 44.4687 33.7427C42.5118 35.6667 40.0187 36.9769 37.3045 37.5078C34.5902 38.0386 31.7769 37.7661 29.2202 36.7249C26.6634 35.6837 24.4782 33.9204 22.9407 31.658C21.4032 29.3957 20.5826 26.7359 20.5826 24.015C20.5722 22.2055 20.927 20.412 21.6265 18.7383C22.326 17.0646 23.3562 15.544 24.6576 14.2645C25.959 12.985 27.5056 11.972 29.2079 11.2843C30.9102 10.5965 32.7343 10.2477 34.5747 10.2579Z" fill="black"/>
</svg>
