<svg width="112" height="111" viewBox="0 0 112 111" fill="none" xmlns="http://www.w3.org/2000/svg">
<g clip-path="url(#clip0_19_95)">
<path d="M99.1799 49.1273V49.0783L85.7318 62.4063V97.2098C85.7318 97.3758 85.5466 97.5597 85.379 97.5597H48.7257L13.7266 97.5265L13.6496 97.4927C13.5828 97.4758 13.5153 97.4088 13.4479 97.2098V26.2706C13.4479 26.087 13.6163 25.9209 13.8007 25.9209H49.3878L57.2561 18.1229L62.8359 12.6276H62.8007L62.8359 12.5929H13.8009C6.18669 12.5929 0 18.7234 0 26.2706V97.2098C0 100.507 1.21078 103.707 3.36241 106.122C3.53084 106.323 3.73494 106.489 3.91519 106.678C4.01603 106.783 4.11863 106.885 4.22013 106.983C4.39709 107.154 4.55 107.348 4.73966 107.505C7.245 109.687 10.4563 110.887 13.8007 110.887H85.379C92.9935 110.887 99.1799 104.756 99.1799 97.2098V69.0329L99.2049 49.1028L99.1799 49.1273Z" fill="#374149"/>
<path d="M110.624 18.3566L93.5933 1.47682C92.7048 0.597061 91.5366 0.111652 90.3062 0.11252C89.1398 0.111652 88.0511 0.554568 87.2413 1.35737L33.5235 54.5955L24.5042 83.2244C24.1864 84.2314 24.4709 85.3306 25.2425 86.0961C25.7944 86.644 26.5423 86.9575 27.2965 86.9575C27.582 86.9575 27.8657 86.9143 28.1418 86.8295L57.0286 77.8901L110.747 24.6531C112.465 22.9501 112.409 20.1257 110.624 18.3566ZM58.8941 67.33C58.5728 66.4237 58.0782 65.5837 57.4372 64.8698L94.3248 28.3124L96.3047 30.2744L70.1906 56.1556L58.8941 67.33ZM53.9304 72.2705L53.7235 72.4756L36.4296 77.8268L33.5884 75.0102L38.9879 57.8707L39.1948 57.6665L41.5744 57.5429C42.205 57.5099 42.7998 57.735 43.2467 58.1781C43.6927 58.6201 43.92 59.2087 43.8868 59.8346C43.7774 61.928 44.5706 63.9776 46.0666 65.4588C47.562 66.9415 49.6309 67.7284 51.7423 67.62C52.3727 67.586 52.9669 67.8139 53.4155 68.2585C53.8604 68.6988 54.0879 69.2866 54.0556 69.9116L53.9304 72.2705ZM44.174 52.7309L81.5684 15.6694L83.549 17.6325L46.6623 54.189C46.0384 53.6412 45.3113 53.226 44.5397 52.9104C44.4148 52.8536 44.3019 52.7833 44.174 52.7309ZM51.4671 62.4002C50.8356 62.4323 50.2417 62.2071 49.7948 61.7633C49.3487 61.3212 49.1214 60.7326 49.1538 60.1067C49.1991 59.2445 49.0897 58.3825 48.8351 57.5576L86.3354 20.393L91.5375 25.5495L54.0372 62.7141C53.2066 62.462 52.336 62.3536 51.4671 62.4002ZM84.3555 12.9087L90.3576 6.95962L105.093 21.5646L99.0912 27.5128L84.3555 12.9087Z" fill="#374149"/>
</g>
<defs>
<clipPath id="clip0_19_95">
<rect width="112" height="111" fill="white"/>
</clipPath>
</defs>
</svg>
